<svg width="610" height="126" viewBox="0 0 610 126" fill="none" xmlns="http://www.w3.org/2000/svg">
<g clip-path="url(#clip0_9420_324025)">
<g clip-path="url(#clip1_9420_324025)">
<path d="M155.545 51.4129V59.4812H172.158V70.9561H155.545V86.0618H143.537V39.938H180.766V51.4129H155.545Z" fill="#070733"/>
<path d="M223.806 74.7213V86.0618H187.136V39.938H223.376V51.2784H199.144V57.6434H214.509V68.1771H199.144V74.7213H223.806Z" fill="#070733"/>
<path d="M268.051 51.4129H253.934V86.0618H241.796V51.4129H227.55V39.938H268.051V51.4129Z" fill="#070733"/>
<path d="M285.955 39.938V86.0618H273.947V39.938H285.955Z" fill="#070733"/>
<path d="M342.767 39.938V86.0618H330.759V60.4225L319.483 76.2005H318.493L307.303 60.6466V86.0618H295.338V39.938H305.237L319.052 59.033L332.782 39.938H342.767Z" fill="#070733"/>
<path d="M412.534 59.4814V78.6213C410.068 81.4298 407.04 83.6402 403.664 85.0963C400.287 86.5524 396.645 87.2187 392.994 87.0481C377.07 87.0481 368.074 76.0215 368.074 63.0674C368.012 59.8253 368.59 56.6044 369.772 53.6045C370.955 50.6047 372.716 47.89 374.948 45.6287C377.18 43.3675 379.834 41.608 382.746 40.4595C385.658 39.311 388.765 38.7979 391.875 38.9521C395.955 38.703 400.015 39.7145 403.545 41.8596C407.075 44.0047 409.918 47.1879 411.717 51.0097L401.473 56.3438C400.62 54.475 399.251 52.9137 397.541 51.8597C395.832 50.8057 393.859 50.3069 391.875 50.427C390.281 50.3406 388.687 50.6147 387.204 51.2306C385.721 51.8464 384.383 52.7894 383.283 53.9946C382.183 55.1999 381.347 56.6389 380.831 58.2128C380.316 59.7866 380.134 61.4581 380.298 63.1122C380.179 64.884 380.437 66.6613 381.052 68.3179C381.667 69.9745 382.625 71.4697 383.857 72.6975C385.09 73.9253 386.566 74.8556 388.183 75.4223C389.799 75.989 391.515 76.1783 393.21 75.9766C396.1 76.0743 398.956 75.2957 401.43 73.7354V69.253H392.306V59.4814H412.534Z" fill="#070733"/>
<path d="M462.848 85.4791V86.0618H450.194L441.027 71.7181H432.419V86.0618H420.368V39.938H444.212C446.306 39.7425 448.416 40.0086 450.406 40.7187C452.395 41.4289 454.218 42.5673 455.757 44.0599C457.295 45.5525 458.515 47.3658 459.336 49.3818C460.158 51.3978 460.562 53.5712 460.524 55.7608C460.6 58.6088 459.906 61.4219 458.521 63.8789C457.136 66.3359 455.116 68.3378 452.69 69.6562L462.848 85.4791ZM432.505 61.1397H442.748C443.434 61.2065 444.126 61.1235 444.779 60.896C445.432 60.6684 446.033 60.3014 446.542 59.8183C447.051 59.3352 447.458 58.7467 447.737 58.0905C448.015 57.4343 448.159 56.7248 448.159 56.0074C448.159 55.2899 448.015 54.5804 447.737 53.9242C447.458 53.268 447.051 52.6795 446.542 52.1964C446.033 51.7133 445.432 51.3463 444.779 51.1187C444.126 50.8912 443.434 50.8082 442.748 50.875H432.505V61.1397Z" fill="#070733"/>
<path d="M465.516 62.9776C465.516 56.3797 468.033 50.0521 472.512 45.3867C476.992 40.7213 483.068 38.1003 489.403 38.1003C495.738 38.1003 501.814 40.7213 506.294 45.3867C510.773 50.0521 513.29 56.3797 513.29 62.9776C513.29 69.5755 510.773 75.9031 506.294 80.5685C501.814 85.2339 495.738 87.8549 489.403 87.8549C483.068 87.8549 476.992 85.2339 472.512 80.5685C468.033 75.9031 465.516 69.5755 465.516 62.9776ZM501.067 62.9776C501.067 59.756 499.838 56.6662 497.651 54.3882C495.463 52.1101 492.496 50.8303 489.403 50.8303C486.31 50.8303 483.343 52.1101 481.156 54.3882C478.968 56.6662 477.739 59.756 477.739 62.9776C477.739 66.1993 478.968 69.289 481.156 71.567C483.343 73.8451 486.31 75.1249 489.403 75.1249C492.496 75.1249 495.463 73.8451 497.651 71.567C499.838 69.289 501.067 66.1993 501.067 62.9776Z" fill="#070733"/>
<path d="M519.789 67.684V39.938H531.797V67.684C531.797 72.7491 535.154 75.3041 540.405 75.3041C545.656 75.3041 549.013 72.7491 549.013 67.684V39.938H561.064V67.684C561.064 80.2347 552.887 87.0479 540.491 87.0479C528.096 87.0479 519.789 80.2347 519.789 67.684Z" fill="#070733"/>
<path d="M610 56.2093C610.056 58.4023 609.676 60.5837 608.884 62.6165C608.092 64.6494 606.905 66.4897 605.398 68.0219C603.89 69.554 602.095 70.745 600.124 71.52C598.153 72.295 596.05 72.6372 593.946 72.5252H581.508V85.9724H569.457V39.9382H593.946C596.048 39.8198 598.15 40.1561 600.121 40.9259C602.091 41.6958 603.887 42.8825 605.396 44.4112C606.904 45.9399 608.092 47.7775 608.884 49.808C609.677 51.8386 610.057 54.0182 610 56.2093ZM597.992 56.2093C598.013 55.4482 597.879 54.6911 597.599 53.988C597.318 53.2849 596.898 52.6518 596.365 52.1307C595.832 51.6095 595.199 51.2121 594.507 50.9648C593.816 50.7175 593.082 50.6258 592.354 50.696H581.551V61.5433H592.354C593.054 61.6176 593.762 61.5406 594.432 61.3173C595.103 61.094 595.722 60.729 596.251 60.2453C596.78 59.7616 597.208 59.1694 597.508 58.5059C597.807 57.8423 597.972 57.1215 597.992 56.3886V56.2093Z" fill="#070733"/>
<path d="M57.4578 98.2091L0 49.127V76.9178L57.4578 126V98.2091Z" fill="#070733"/>
<path d="M36.4114 43.5688L50.098 55.2679L64.4732 42.9861L79.1067 55.492L64.7314 67.7737L78.9345 79.8762L114.916 49.127L57.4578 0L35.8088 18.5123L50.7436 31.2871L36.4114 43.5688Z" fill="#070733"/>
<path d="M78.9346 79.8762V107.667L114.916 76.9178V49.127L78.9346 79.8762Z" fill="#070733"/>
<path d="M78.9346 79.8761V107.667L57.4579 126V98.2091L0 49.1269L35.8089 18.5122L50.7437 31.287L36.4115 43.5688L50.0981 55.2678L64.4733 42.9861L79.1068 55.4919L64.7315 67.7737L78.9346 79.8761Z" fill="#070733"/>
</g>
</g>
<defs>
<clipPath id="clip0_9420_324025">
<rect width="610" height="126" fill="#070733"/>
</clipPath>
<clipPath id="clip1_9420_324025">
<rect width="610" height="126" fill="#070733"/>
</clipPath>
</defs>
</svg>
