<svg version="1.1" xmlns="http://www.w3.org/2000/svg" xmlns:xlink="http://www.w3.org/1999/xlink" width="453.99267" height="157.96303" viewBox="0,0,453.99267,157.96303"><g transform="translate(-13.00367,-101.01849)"><g data-paper-data="{&quot;isPaintingLayer&quot;:true}" fill-rule="evenodd" stroke="none" stroke-width="1" stroke-linecap="butt" stroke-linejoin="miter" stroke-miterlimit="10" stroke-dasharray="" stroke-dashoffset="0" style="mix-blend-mode: normal"><path d="M80.05304,169.20678h30.96314v43.10755h-56.7746c-2.83301,0 -5.1231,-2.39214 -5.1231,-5.34762v-53.9375c0,-2.9514 2.29009,-5.34354 5.1231,-5.34354h56.77868v10.76872h-41.2869l-0.00408,43.08713h25.8033v-21.54153h-15.47953v-10.79322M188.41382,212.31433v-59.28512c0,-2.9514 -2.29417,-5.34354 -5.12719,-5.34354h-41.30323v10.76056h25.79105v43.10755h-25.79105v-21.55377h15.44687v-10.76872h-25.81962c-2.83301,0 -5.13127,2.39622 -5.13127,5.34762v32.38781c0,2.95548 2.29825,5.34762 5.13127,5.34762h56.80317M430.8856,212.31433v-59.28512c0,-2.9514 -2.29009,-5.34354 -5.11494,-5.34354h-41.3114v10.76056h25.78697v43.10755h-25.78697v-21.55377h15.45095v-10.76872h-25.82779c-2.82485,0 -5.11902,2.39622 -5.11902,5.34762v32.38781c0,2.95548 2.29417,5.34762 5.11902,5.34762h56.80317M265.81146,147.68159c2.82893,0 5.1231,2.39214 5.1231,5.34762v59.28512h-20.61488v-53.87219h-10.32785v21.55377h-10.32785v-21.55377h-10.32785v53.87219h-15.47136v-59.28512c0,-2.95548 2.29417,-5.34354 5.1231,-5.34354h56.82358M348.36078,147.68159c2.82485,0 5.11902,2.39214 5.11902,5.34762v59.28512h-20.61896v-53.87219h-10.32377v21.55377h-10.31969v-21.55377h-10.33601v53.87219h-15.47136v-59.28512c0,-2.95548 2.29417,-5.34354 5.1231,-5.34354h56.82358" fill="#070733"/></g></g></svg>